# xmcd
#
# Track frame offsets:
#	150
#	13205
#	23580
#	34942
#	48387
#	59510
#	71237
#	81567
#	94375
#	104952
#	118195
#	129150
#
# Disc length: 1881 seconds
#
# Revision: 1
# Processed by: cddbd v1.4PL0 Copyright (c) Steve Scherf et al.
# Submitted via: audiograbber 1.81.02
#
DISCID=b307570c
DTITLE=Bubber Johnson - Come Home
DYEAR=1987
DGENRE=Blues
TTITLE0=Come Home
TTITLE1=The Search
TTITLE2=There'll Be No One
TTITLE3=I Lost Of Everything
TTITLE4=Have A Little Faith In Me
TTITLE5=Too Many Hearts
TTITLE6=The Whisperers
TTITLE7=My Lonely Heart
TTITLE8=A Crazy Afternoon
TTITLE9=Keep A Light In The Window For Me
TTITLE10=My One Desire
TTITLE11=Muddy Water
EXTD=Highland Music 589\n© 1987
EXTT0=
EXTT1=
EXTT2=
EXTT3=
EXTT4=
EXTT5=
EXTT6=
EXTT7=
EXTT8=
EXTT9=
EXTT10=
EXTT11=
PLAYORDER=
